<?xml version="1.0" standalone="no"?>
<!DOCTYPE svg PUBLIC "-//W3C//DTD SVG 20010904//EN"
 "http://www.w3.org/TR/2001/REC-SVG-20010904/DTD/svg10.dtd">
<svg version="1.0" xmlns="http://www.w3.org/2000/svg"
 width="700.000000pt" height="700.000000pt" viewBox="0 0 700.000000 700.000000"
 preserveAspectRatio="xMidYMid meet">
<metadata>
Created by potrace 1.11, written by Peter Selinger 2001-2013
</metadata>
<g transform="translate(0.000000,700.000000) scale(0.100000,-0.100000)"
fill="#000000" stroke="none">
<path d="M3468 6538 c-8 -13 -29 -48 -46 -78 -17 -30 -138 -244 -270 -475
-133 -231 -239 -422 -236 -424 5 -6 1133 -6 1138 0 2 2 -111 204 -251 449
-141 245 -267 465 -280 490 -35 62 -38 64 -55 38z"/>
<path d="M2920 5390 c-5 -3 9 -37 32 -75 22 -39 53 -92 68 -120 118 -210 452
-791 459 -798 5 -5 29 26 56 75 26 45 56 99 67 118 11 19 84 145 161 280 77
135 175 306 217 380 43 74 76 137 74 139 -5 6 -1125 7 -1134 1z"/>
<path d="M4092 5118 c-61 -106 -118 -208 -129 -225 -10 -18 -89 -157 -176
-309 -87 -152 -156 -278 -154 -280 2 -2 260 -3 574 -2 l570 3 -287 503 -288
503 -110 -193z"/>
<path d="M2747 5278 c-13 -22 -243 -424 -285 -498 -10 -19 -63 -111 -117 -205
-54 -93 -111 -194 -127 -222 l-29 -53 576 0 575 0 -19 38 c-15 30 -85 153
-206 362 -8 14 -87 154 -177 312 -90 158 -166 287 -170 288 -4 0 -14 -10 -21
-22z"/>
<path d="M2207 4106 c25 -49 545 -960 553 -969 4 -5 45 58 92 140 47 81 90
157 96 168 103 173 389 682 386 686 -2 4 -260 6 -573 6 l-570 0 16 -31z"/>
<path d="M3633 4126 c7 -19 557 -980 565 -988 6 -6 181 292 413 702 15 26 56
99 93 163 36 64 66 121 66 125 0 5 -257 9 -571 9 -435 0 -569 -2 -566 -11z"/>
<path d="M2028 4023 c-8 -15 -131 -233 -275 -483 -143 -250 -265 -464 -271
-476 l-11 -20 575 0 c446 0 573 3 570 13 -8 19 -557 977 -566 986 -4 5 -14 -4
-22 -20z"/>
<path d="M4913 4038 c-14 -19 -557 -971 -561 -983 -2 -8 175 -11 568 -11 313
0 570 4 570 8 0 4 -8 22 -19 40 -10 18 -60 105 -110 193 -50 87 -91 161 -91
163 0 2 -8 16 -18 30 -11 15 -33 52 -49 82 -17 30 -81 142 -142 249 -61 107
-111 197 -111 200 0 3 -7 14 -14 24 -10 13 -15 14 -23 5z"/>
<path d="M1488 2848 c11 -18 140 -243 287 -500 146 -258 270 -468 273 -468 6
1 559 962 570 991 2 5 -256 9 -573 9 l-577 0 20 -32z"/>
<path d="M4350 2874 c0 -14 565 -994 572 -992 6 2 148 246 408 703 105 185
160 283 160 289 0 3 -256 6 -570 6 -313 0 -570 -3 -570 -6z"/>
<path d="M1038 2290 l-285 -500 573 0 c316 0 574 3 574 6 0 3 -34 65 -77 137
-42 73 -87 152 -101 177 -14 25 -50 88 -80 140 -30 52 -69 120 -86 151 -104
186 -222 389 -226 389 -3 0 -134 -225 -292 -500z"/>
<path d="M5430 2433 c-113 -197 -212 -371 -221 -388 -9 -16 -46 -81 -82 -142
l-65 -113 574 0 c316 0 574 2 574 5 0 3 -71 130 -159 283 -87 152 -169 295
-181 317 -12 22 -34 60 -49 85 -14 25 -35 61 -46 81 -75 134 -131 229 -135
229 -4 0 -98 -161 -210 -357z"/>
<path d="M768 1619 c-6 -4 109 -216 273 -502 217 -378 287 -493 295 -484 10
10 154 260 485 842 37 66 69 126 71 134 3 12 -79 14 -555 15 -308 1 -564 -2
-569 -5z"/>
<path d="M3645 1620 c-11 -4 53 -123 251 -470 146 -256 274 -480 283 -497 9
-18 19 -33 22 -33 5 0 51 78 136 230 11 19 111 194 223 389 111 195 205 361
207 370 4 15 -47 16 -552 16 -306 0 -562 -2 -570 -5z"/>
<path d="M5070 1622 c-6 -2 -2 -15 8 -30 10 -15 77 -130 149 -257 170 -299
160 -281 293 -514 63 -110 117 -201 120 -201 9 1 570 993 565 999 -6 5 -1118
8 -1135 3z"/>
<path d="M6075 1049 c-154 -270 -281 -497 -283 -505 -3 -12 76 -14 567 -14
314 0 571 2 571 5 0 6 -559 987 -569 997 -3 4 -132 -214 -286 -483z"/>
<path d="M434 1234 c-93 -163 -180 -315 -193 -338 -13 -22 -36 -63 -52 -91
-15 -27 -55 -97 -88 -155 -34 -58 -61 -108 -61 -112 0 -5 257 -8 571 -8 563 0
570 0 564 20 -3 11 -50 95 -103 187 -54 93 -178 309 -276 481 -98 171 -182
312 -186 312 -3 0 -83 -133 -176 -296z"/>
<path d="M3323 1262 c-83 -147 -210 -370 -282 -496 -73 -126 -130 -230 -128
-232 2 -3 261 -3 576 -2 l571 3 -103 180 c-57 99 -118 205 -134 235 -17 30
-97 170 -177 309 -80 140 -146 259 -146 263 0 38 -47 -31 -177 -260z"/>
<path d="M4898 1503 c-8 -15 -133 -234 -277 -486 -144 -252 -265 -465 -268
-473 -4 -12 75 -14 566 -14 584 0 595 1 562 35 -5 6 -19 27 -30 49 -12 21
-121 212 -243 425 -122 212 -234 408 -249 436 -15 27 -32 51 -37 53 -6 2 -16
-10 -24 -25z"/>
</g>
</svg>
